inDegrees=no
num_controls=7
num_derivatives=13
num_iterations=197
num_multipliers=7
num_parameters=0
num_slacks=7
num_states=26
objective=5.884844
objective_accelerations=0.701501
objective_balance=0.111954
objective_effort=0.485654
objective_height=4.524237
objective_ligament=0.061498
solver_duration=2438.941582
status=Solve_Succeeded
success=true
DataType=double
version=3
OpenSimVersion=4.4-2022-07-23-0e9fedc
endheader
time	/jointset/ground_pelvis/pelvis_tilt/value	/jointset/ground_pelvis/pelvis_tx/value	/jointset/ground_pelvis/pelvis_ty/value	/jointset/hip_l/hip_flexion_l/value	/jointset/hip_l/hip_adduction_l/value	/jointset/hip_l/hip_rotation_l/value	/jointset/back/lumbar_extension/value	/jointset/patellofemoral_l/patellar_flexion_l/value	/jointset/knee_l/knee_flexion_l/value	/jointset/knee_l/knee_adduction_l/value	/jointset/knee_l/knee_rotation_l/value	/jointset/ankle_l/ankle_angle_l/value	/jointset/subtalar_l/subtalar_angle_l/value	/jointset/ground_pelvis/pelvis_tilt/speed	/jointset/ground_pelvis/pelvis_tx/speed	/jointset/ground_pelvis/pelvis_ty/speed	/jointset/hip_l/hip_flexion_l/speed	/jointset/hip_l/hip_adduction_l/speed	/jointset/hip_l/hip_rotation_l/speed	/jointset/back/lumbar_extension/speed	/jointset/patellofemoral_l/patellar_flexion_l/speed	/jointset/knee_l/knee_flexion_l/speed	/jointset/knee_l/knee_adduction_l/speed	/jointset/knee_l/knee_rotation_l/speed	/jointset/ankle_l/ankle_angle_l/speed	/jointset/subtalar_l/subtalar_angle_l/speed	/forceset/tau_hip_flexion_l	/forceset/tau_hip_adduction_l	/forceset/tau_hip_rotation_l	/forceset/tau_knee_flexion_l	/forceset/tau_ankle_angle_l	/forceset/tau_subtalar_angle_l	/forceset/tau_lumbar_extension	lambda_cid13_p0	lambda_cid13_p1	lambda_cid13_p2	lambda_cid13_p3	lambda_cid13_p4	lambda_cid13_p5	lambda_cid14_p0	/jointset/ground_pelvis/pelvis_tilt/accel	/jointset/ground_pelvis/pelvis_tx/accel	/jointset/ground_pelvis/pelvis_ty/accel	/jointset/hip_l/hip_flexion_l/accel	/jointset/hip_l/hip_adduction_l/accel	/jointset/hip_l/hip_rotation_l/accel	/jointset/back/lumbar_extension/accel	/jointset/patellofemoral_l/patellar_flexion_l/accel	/jointset/knee_l/knee_flexion_l/accel	/jointset/knee_l/knee_adduction_l/accel	/jointset/knee_l/knee_rotation_l/accel	/jointset/ankle_l/ankle_angle_l/accel	/jointset/subtalar_l/subtalar_angle_l/accel	gamma_cid13_p0	gamma_cid13_p1	gamma_cid13_p2	gamma_cid13_p3	gamma_cid13_p4	gamma_cid13_p5	gamma_cid14_p0
0	-0.160047219013376	0.05853002996984943	0.8979947379500947	0.3774920279260975	-0.2591956568269983	-0.2719739329178442	-0.0126506700172305	0.0322362312843368	0.03223623128433527	-0.1745329251994329	0.1735764810751781	-0.04231376238535053	-0.00933164553076077	0	0	0	0	0	0	0	0	0	0	0	0	0	0.1600933089905981	-0.09269766426605075	-0.05203436953689396	-0.3096741003896775	0.3027193204265422	-0.03418512022334733	-0.1038521268815251	55.32834213207746	-0.8322973745163424	6.573781287272965	0.6408631006212123	-587.0205051595724	-80.9806231205409	-39.0439032060888	-4.937580083359891	-2.450558616281958	-1.218509708823921	13.67331743405703	-1.292756904002098	3.091558538148777	-6.105238478439468	9.247538327543831	9.24753832754392	0.05385765202121392	0.09806039881867787	0.5677030515625243	-1.191626854416883	-2.565316961990902e-08	1.00786787302339e-07	7.726188301373979e-08	-2.82925300920816e-09	8.274526366564167e-08	1.815912559243707e-08	-1.151806341725144e-08
0.01	-0.1602862744529782	0.05840904981049988	0.897935137329671	0.3781594114958349	-0.2592601199835531	-0.2718198678615581	-0.01295716298771428	0.03268831411074805	0.03268831411074485	-0.1745324519352007	0.1735785273851609	-0.04228755910262421	-0.009391539721239512	-0.04756577457546051	-0.02408074339605489	-0.01187611105816301	0.1328548893738961	-0.01282066195265649	0.03067739220546683	-0.06088056084401956	0.09003173563831361	0.09003173563831447	0.000112186447057326	0.000410641161603955	0.005239277540952681	-0.01190704146382397	0.1536371690921658	-0.09496728757824198	-0.05087236487010004	-0.3024896190335774	0.2933412681811389	-0.02752716660469337	-0.0985391754412705	52.54698001590292	-3.148559527353088	6.842205562869464	1.517009390548296	-588.0832212519749	-84.94081957082975	-39.05693148967047	-4.629287484761726	-2.369539496718338	-1.165543300946128	12.99829415509982	-1.265946522412647	3.035477728127898	-6.016759899526426	8.823269038943554	8.823269038943621	-0.007685040025519604	0.01276544599339418	0.5018320566396453	-1.179497884990863	-5.09829177004084e-08	1.156496858395278e-07	1.166640017968708e-07	1.597775208823416e-08	-5.083274520449464e-08	2.399615955066973e-08	-1.912140917856855e-08
0.02	-0.1609936299063551	0.05805072075809947	0.8977580992993397	0.3801366878525219	-0.2594506348959376	-0.271363099249942	-0.01385992056906494	0.03402916986494133	0.03402916986494355	-0.1745303657140646	0.1735847200009883	-0.04220900465423258	-0.009568355344881504	-0.09366000275584503	-0.04746977861017057	-0.02348748198155597	0.2619785573895447	-0.02521035116590325	0.06054071106622626	-0.119252922173771	0.1777545855553684	0.1777545855553712	0.0003210056512096958	0.0008292611696915714	0.01047023313303024	-0.02338428663265842	0.1471810291937615	-0.09723691089044253	-0.04971036020329236	-0.2953051376774287	0.2839632159357559	-0.0208692129860442	-0.0932262240010167	49.84685327113875	-5.478902750363296	7.112715792949466	2.290917250842086	-587.8817140242626	-88.79647828255325	-39.0954051583176	-4.643270804344403	-2.312216979894357	-1.165561681869793	12.92707316240787	-1.206562356118628	2.928743869207305	-5.603598575585861	8.78576118329207	8.785761183292374	0.07318420344324572	0.09965616811526164	0.5660386617876566	-1.105667595417453	-7.631266578090779e-08	1.305125843767165e-07	1.560661205800018e-07	3.478475718567649e-08	-1.844107540746309e-07	2.983319350890238e-08	-2.672475493988566e-08
0.03	-0.1621549430613254	0.05746200171616533	0.8974660040663159	0.3833870517616818	-0.2597626267342872	-0.270611788892182	-0.01533344334453611	0.03623575923425486	0.03623575923425363	-0.1745254909556596	0.1735951440319347	-0.04207813223468428	-0.009857540122883526	-0.1383542783256825	-0.07015204151442964	-0.0349078040604251	0.3874605267350398	-0.03710170283226113	0.08958201419258115	-0.1750329354134605	0.2631619636350147	0.2631619636350195	0.0006651432943219362	0.001253135235325506	0.01570122973254212	-0.03436869775455167	0.1400455864018168	-0.09222083645021503	-0.04859384350605216	-0.2882641633872599	0.2765801315400734	-0.02152048673906044	-0.08745108653929119	47.50074833061267	-4.881963891168054	7.127995232954275	2.958040945236371	-587.6012769443474	-86.49674625417762	-39.15806172279841	-4.345262570945871	-2.227925673368149	-1.126740808340231	12.26369128401788	-1.16749698285159	2.870899552095896	-5.502398072120799	8.35803279518287	8.35803279518298	0.0167421157929964	0.0133711672552467	0.5011727851850591	-1.082269897287276	-9.531991812832216e-08	1.466868772644148e-07	1.806014910615503e-07	5.113450214711319e-08	-2.883423215741662e-07	3.808592417283557e-08	-3.101739175430544e-08
